<?xml version="1.0" encoding="UTF-8" ?>
<svg version="1.1" xmlns="http://www.w3.org/2000/svg" width="256" height="256">
	<path d="M0 0 C0.98916916 0.17315483 0.98916916 0.17315483 1.99832153 0.34980774 C4.15457293 0.72879743 6.30919331 1.11630114 8.46386719 1.50415039 C9.97117126 1.77125626 11.47855796 2.03789623 12.98602295 2.30409241 C16.13359974 2.86117116 19.28044114 3.42217659 22.42675781 3.98632812 C26.45974992 4.70938468 30.49398915 5.42516603 34.52873611 6.13835812 C37.63627658 6.68801749 40.74336733 7.24018206 43.85030365 7.79324532 C45.33817985 8.05804791 46.82614031 8.32237755 48.3141861 8.58622551 C50.38957329 8.95487352 52.46439009 9.32657191 54.5390625 9.69921875 C55.71929993 9.91017685 56.89953735 10.12113495 58.11553955 10.33848572 C61.01074219 10.91430664 61.01074219 10.91430664 64.01074219 11.91430664 C64.95996094 14.89868164 64.95996094 14.89868164 65.69824219 18.66430664 C65.94960937 19.89665039 66.20097656 21.12899414 66.45996094 22.39868164 C67.64997225 29.9944985 67.64997225 29.9944985 64.96386719 33.85961914 C64.06942956 34.92509396 63.16802633 35.98474951 62.26074219 37.03930664 C56.6590319 43.96346531 52.516803 50.74400809 52.94824219 59.97680664 C54.13712528 67.3082524 57.01977323 73.72153147 62.88574219 78.41430664 C69.06699846 82.50433415 75.69379812 83.89644678 83.01074219 82.91430664 C94.90861681 79.40084031 101.04662859 70.52358785 108.01074219 60.91430664 C109.81524736 59.10980147 112.76359899 59.73996703 115.19824219 59.66430664 C127.10768172 58.86387588 137.19784885 55.07504587 146.01074219 46.91430664 C146.94660156 46.09639648 146.94660156 46.09639648 147.90136719 45.26196289 C152.72194253 40.80817045 155.86664987 35.63816702 159.01074219 29.91430664 C164.70410456 32.01837534 167.74950626 34.73976194 170.82324219 40.03930664 C174.43438356 49.60933179 171.22937846 60.92220547 169.48803711 70.63183594 C169.2162652 72.18682458 168.94529679 73.74195383 168.67506409 75.29721069 C167.94389931 79.49067266 167.20103543 83.68198131 166.4555223 87.87291312 C165.67431738 92.27368669 164.90261734 96.67612835 164.12947083 101.07832336 C162.83049129 108.46566996 161.52386012 115.85163215 160.21264648 123.23681641 C158.69934916 131.76075988 157.198296 140.28679091 155.70374602 148.81403989 C154.26178803 157.03951597 152.81109448 165.26342855 151.35647011 173.48667336 C150.73925686 176.97679609 150.12509297 180.4674348 149.5134182 183.95853233 C148.79242886 188.07124095 148.06377513 192.18252093 147.32930565 196.29284286 C147.06181985 197.79675981 146.79691983 199.30113943 146.53487015 200.80601311 C142.69654685 222.82052728 142.69654685 222.82052728 133.88574219 229.16430664 C124.48216794 234.03676881 113.85297045 231.22081688 103.96362305 229.42919922 C102.3612022 229.14901143 100.7585806 228.86996975 99.15577698 228.59197998 C94.82719427 227.83759012 90.50175842 227.06643501 86.17681575 226.29148316 C81.63679898 225.48029056 77.09441539 224.68255248 72.55238342 223.88273621 C64.92733429 222.53778874 57.30430829 221.18181174 49.68237305 219.81933594 C40.88721629 218.24728895 32.08902464 216.69322676 23.28900236 215.14866716 C14.80178338 213.6585378 6.3169555 212.15519092 -2.16689873 210.64603233 C-5.76757558 210.00578717 -9.36903022 209.37021481 -12.97120857 208.73847389 C-17.21754805 207.99317884 -21.4616671 207.23630216 -25.70438576 206.47067261 C-27.25601189 206.1925602 -28.80834393 205.91835152 -30.36142349 205.64847374 C-49.35839295 202.34126424 -49.35839295 202.34126424 -55.14550781 196.87915039 C-55.58894531 196.21012695 -56.03238281 195.54110352 -56.48925781 194.85180664 C-57.18535156 193.8444043 -57.18535156 193.8444043 -57.89550781 192.81665039 C-63.2853021 183.44225818 -59.27948291 170.14872017 -57.48242188 160.11499023 C-57.21221095 158.5631093 -56.94286731 157.01107714 -56.67431641 155.45890808 C-55.94808443 151.27761229 -55.20905512 147.09867693 -54.46696949 142.92016935 C-53.84657416 139.41945291 -53.23278174 135.91759213 -52.61901641 132.41570818 C-51.17045695 124.15092787 -49.71172402 115.88798966 -48.24609375 107.6262207 C-46.73830525 99.12600204 -45.24579967 90.6232038 -43.76111054 82.11892259 C-42.48158192 74.79232663 -41.19354409 67.46726296 -39.89853454 60.14338744 C-39.12702747 55.78003123 -38.35844673 51.41621585 -37.59766388 47.0509758 C-36.88190743 42.94676467 -36.15543575 38.84458798 -35.42092896 34.7436924 C-35.15438103 33.2456449 -34.89145724 31.74694692 -34.63259125 30.24755287 C-31.00383828 9.26644801 -31.00383828 9.26644801 -25.23925781 3.97680664 C-16.78316437 -1.38956035 -9.87936841 -1.75446855 0 0 Z " fill="#FFF" transform="translate(71.9892578125,23.085693359375)" />
	<path d="M0 0 C7.25079501 5.93616489 12.2090368 13.27022744 13.17578125 22.7578125 C13.26379875 30.53855962 12.59009027 36.58959767 8.83984375 43.4609375 C8.48921875 44.10675781 8.13859375 44.75257812 7.77734375 45.41796875 C3.17299881 52.7561435 -4.40413182 56.8306511 -12.609375 59 C-18.93759069 60.14353668 -24.87206457 59.58770537 -31.16015625 58.4609375 C-31.7648877 59.23957153 -31.7648877 59.23957153 -32.38183594 60.03393555 C-34.22423848 62.40572458 -36.06719259 64.77708446 -37.91015625 67.1484375 C-38.544375 67.96505859 -39.17859375 68.78167969 -39.83203125 69.62304688 C-41.06159241 71.20482608 -42.29266077 72.7854351 -43.52539062 74.36474609 C-44.85190145 76.0656753 -46.17119353 77.7722325 -47.48828125 79.48046875 C-49.99346937 82.44806309 -50.9838322 82.44359415 -54.97265625 82.8359375 C-58.40134938 82.77972942 -59.1634497 82.45867325 -62.16015625 80.3984375 C-64.76033214 76.57942917 -64.99482351 75.01366799 -64.16015625 70.4609375 C-61.82214481 65.82262449 -58.53045451 61.87114987 -55.13671875 57.97265625 C-50.53240451 52.61481603 -50.53240451 52.61481603 -47.16015625 46.4609375 C-47.63155708 42.89823506 -48.85293987 40.73042377 -50.64453125 37.6328125 C-53.79415961 31.04132223 -53.26904804 22.64877351 -51.42578125 15.6875 C-50.49749192 13.45808381 -49.44714715 11.50149544 -48.16015625 9.4609375 C-47.63421875 8.52894531 -47.63421875 8.52894531 -47.09765625 7.578125 C-42.72515633 0.56390638 -36.10198324 -3.23594153 -28.28515625 -5.4765625 C-17.95407733 -7.68192623 -8.63968932 -6.15558335 0 0 Z " fill="#FFF" transform="translate(205.16015625,7.5390625)" />
</svg>